<?xml version="1.0" encoding="UTF-8"?>
<!-- Uploaded to: SVG Find, www.svgfind.com, Generator: SVG Find Mixer Tools -->
<svg fill="#ffffffff" width="800px" height="800px" version="1.1" viewBox="144 144 512 512" xmlns="http://www.w3.org/2000/svg">
 <path d="m393.48 329.07c39.184 0 70.941 31.762 70.941 70.949 0 39.184-31.762 70.941-70.941 70.941-39.184 0-70.949-31.762-70.949-70.941 0.007812-39.184 31.766-70.949 70.949-70.949zm-120.06 216.72c-21.469-17.77-38.855-40.109-50.727-65.336-11.867-25.211-17.895-52.605-17.895-80.461 0-41.805 13.609-82.078 39.102-115.22 25.457-33.094 61.172-57.004 101.56-67.672 5.0078-1.3242 8.0312-6.4961 6.7109-11.508-1.3164-5.0078-6.5039-8.0352-11.508-6.7109-44.402 11.73-83.676 38.008-111.67 74.391-28.043 36.445-43.078 80.734-43.078 126.72 0 30.645 6.6758 60.766 19.734 88.496 13.051 27.727 32.148 52.297 55.75 71.828 4.0039 3.3164 9.9609 2.75 13.277-1.2539 3.3086-4.0039 2.7461-9.9609-1.2578-13.277zm145.88-352.25 21.297-16.633c4.0938-3.1953 4.8164-9.1172 1.6211-13.211-3.1953-4.0938-9.1172-4.8164-13.211-1.6211l-40.742 31.832c-0.64062 0.48438-1.2344 1.0664-1.7422 1.7148-3.1953 4.0938-2.4727 10.012 1.6211 13.211l40.871 31.918c4.0938 3.1953 10.008 2.4727 13.211-1.6211 3.1953-4.0938 2.4727-10.008-1.6211-13.211l-16.207-12.652c39.773 6.4375 76.359 25.48 104.63 54.312 34.785 35.465 54.055 82.727 54.055 132.42 0 50.34-19.812 98.16-55.398 133.75-35.586 35.586-83.41 55.398-133.75 55.398l-224.43-0.003906c-5.2109 0-9.4375 4.2266-9.4375 9.4375s4.2266 9.4375 9.4375 9.4375h224.43c55.359 0 107.96-21.789 147.09-60.93 39.141-39.141 60.93-91.734 60.93-147.09 0-54.648-21.254-106.61-59.508-145.63-33.039-33.699-76.352-55.133-123.14-60.824zm183.84 414.48h-75.906c-5.2109 0-9.4375-4.2266-9.4375-9.4375 0-5.2109 4.2266-9.4375 9.4375-9.4375h75.906l-19.285-15.062c-4.0938-3.1953-4.8164-9.1172-1.6211-13.203 3.1953-4.0938 9.1172-4.8164 13.211-1.6211l40.73 31.809c0.66016 0.5 1.2539 1.082 1.7617 1.7305 3.1953 4.0938 2.4727 10.012-1.6211 13.211l-40.871 31.918c-4.0938 3.1953-10.008 2.4648-13.211-1.6211-3.1953-4.0938-2.4727-10.012 1.6211-13.211zm-185.83-328.66-9.3477-24.281h-28.969l-9.3477 24.281c-16.254 3.1914-31.352 9.5898-44.625 18.5l-23.793-10.57-20.484 20.484 10.57 23.793c-8.9102 13.273-15.309 28.371-18.5 44.625l-24.281 9.3477v28.969l24.277 9.3477c3.1914 16.254 9.5898 31.355 18.5 44.629l-10.562 23.789 20.484 20.484 23.793-10.57c13.273 8.9102 28.371 15.305 44.617 18.5l9.3477 24.281h28.969l9.3477-24.277c16.254-3.1914 31.355-9.5898 44.629-18.5l23.789 10.562 20.484-20.484-10.57-23.793c8.9102-13.273 15.305-28.371 18.5-44.617l24.281-9.3477v-28.969l-24.277-9.3398c-3.1914-16.254-9.5898-31.355-18.5-44.629l10.562-23.789-20.484-20.484-23.793 10.57c-13.266-8.9219-28.363-15.32-44.617-18.512z" fill-rule="evenodd"/>
</svg>